<svg width="759" height="517" fill="none" xmlns="http://www.w3.org/2000/svg"><g filter="url(#a)"><path fill="#007CFF" fill-opacity=".37" d="M100 238h559v179H100z"/><path fill="#000" fill-opacity=".2" d="M100 238h559v179H100z"/></g><g clip-path="url(#b)"><rect x="70" width="640" height="372" rx="15" fill="url(#c)"/><circle cx="84" cy="457" r="329" fill="#000" fill-opacity=".1"/><circle cx="919.5" cy="699.5" r="563.5" fill="#000" fill-opacity=".1"/><circle cx="636.5" cy="103.5" r="237.5" fill="#fff" fill-opacity=".1"/><path d="M144.04 171.23h-3.72V176h-3.78v-4.77h-11.52v-2.7L135.37 155h4.17l-9.75 12.93h6.87v-4.23h3.66v4.23h3.72v3.3Zm11.181-8.19c1.38 0 2.62.27 3.72.81 1.1.52 1.96 1.27 2.58 2.25.62.98.93 2.11.93 3.39 0 1.36-.34 2.56-1.02 3.6-.68 1.02-1.6 1.81-2.76 2.37-1.16.56-2.46.84-3.9.84-2.88 0-5.12-.9-6.72-2.7-1.58-1.8-2.37-4.38-2.37-7.74 0-2.36.43-4.37 1.29-6.03.86-1.68 2.06-2.95 3.6-3.81 1.56-.88 3.36-1.32 5.4-1.32 1.08 0 2.09.12 3.03.36.96.22 1.79.55 2.49.99l-1.44 2.94c-1.04-.68-2.37-1.02-3.99-1.02-2.02 0-3.6.62-4.74 1.86-1.14 1.24-1.71 3.03-1.71 5.37v.03c.62-.72 1.41-1.26 2.37-1.62.96-.38 2.04-.57 3.24-.57Zm-.66 10.2c1.22 0 2.21-.32 2.97-.96.76-.66 1.14-1.53 1.14-2.61 0-1.1-.38-1.97-1.14-2.61-.76-.64-1.78-.96-3.06-.96-1.26 0-2.29.34-3.09 1.02-.78.68-1.17 1.54-1.17 2.58 0 1.02.38 1.87 1.14 2.55.78.66 1.85.99 3.21.99Zm25.139-.54v3.3h-15.48v-2.61l8.34-7.92c.94-.9 1.57-1.68 1.89-2.34.34-.68.51-1.35.51-2.01 0-.98-.33-1.73-.99-2.25-.66-.52-1.63-.78-2.91-.78-2.14 0-3.78.73-4.92 2.19l-2.73-2.1c.82-1.1 1.92-1.95 3.3-2.55 1.4-.62 2.96-.93 4.68-.93 2.28 0 4.1.54 5.46 1.62 1.36 1.08 2.04 2.55 2.04 4.41 0 1.14-.24 2.21-.72 3.21s-1.4 2.14-2.76 3.42l-5.61 5.34h9.9Zm9.331-18c2.88 0 5.11.9 6.69 2.7 1.6 1.8 2.4 4.38 2.4 7.74 0 2.36-.43 4.38-1.29 6.06-.86 1.66-2.07 2.93-3.63 3.81-1.54.86-3.33 1.29-5.37 1.29-1.08 0-2.1-.11-3.06-.33-.94-.24-1.76-.58-2.46-1.02l1.44-2.94c1.04.68 2.37 1.02 3.99 1.02 2.02 0 3.6-.62 4.74-1.86 1.14-1.24 1.71-3.03 1.71-5.37v-.03c-.62.72-1.41 1.27-2.37 1.65-.96.36-2.04.54-3.24.54-1.38 0-2.62-.26-3.72-.78-1.1-.54-1.96-1.3-2.58-2.28-.62-.98-.93-2.11-.93-3.39 0-1.36.34-2.55 1.02-3.57.68-1.04 1.6-1.84 2.76-2.4 1.16-.56 2.46-.84 3.9-.84Zm.3 10.2c1.26 0 2.28-.34 3.06-1.02.8-.68 1.2-1.54 1.2-2.58 0-1.02-.39-1.86-1.17-2.52-.76-.68-1.82-1.02-3.18-1.02-1.22 0-2.21.33-2.97.99-.76.64-1.14 1.5-1.14 2.58 0 1.1.38 1.97 1.14 2.61.76.64 1.78.96 3.06.96Zm29.069-10.2c2.88 0 5.11.9 6.69 2.7 1.6 1.8 2.4 4.38 2.4 7.74 0 2.36-.43 4.38-1.29 6.06-.86 1.66-2.07 2.93-3.63 3.81-1.54.86-3.33 1.29-5.37 1.29-1.08 0-2.1-.11-3.06-.33-.94-.24-1.76-.58-2.46-1.02l1.44-2.94c1.04.68 2.37 1.02 3.99 1.02 2.02 0 3.6-.62 4.74-1.86 1.14-1.24 1.71-3.03 1.71-5.37v-.03c-.62.72-1.41 1.27-2.37 1.65-.96.36-2.04.54-3.24.54-1.38 0-2.62-.26-3.72-.78-1.1-.54-1.96-1.3-2.58-2.28-.62-.98-.93-2.11-.93-3.39 0-1.36.34-2.55 1.02-3.57.68-1.04 1.6-1.84 2.76-2.4 1.16-.56 2.46-.84 3.9-.84Zm.3 10.2c1.26 0 2.28-.34 3.06-1.02.8-.68 1.2-1.54 1.2-2.58 0-1.02-.39-1.86-1.17-2.52-.76-.68-1.82-1.02-3.18-1.02-1.22 0-2.21.33-2.97.99-.76.64-1.14 1.5-1.14 2.58 0 1.1.38 1.97 1.14 2.61.76.64 1.78.96 3.06.96Zm26.492 7.8v3.3h-15.48v-2.61l8.34-7.92c.94-.9 1.57-1.68 1.89-2.34.34-.68.51-1.35.51-2.01 0-.98-.33-1.73-.99-2.25-.66-.52-1.63-.78-2.91-.78-2.14 0-3.78.73-4.92 2.19l-2.73-2.1c.82-1.1 1.92-1.95 3.3-2.55 1.4-.62 2.96-.93 4.68-.93 2.28 0 4.1.54 5.46 1.62 1.36 1.08 2.04 2.55 2.04 4.41 0 1.14-.24 2.21-.72 3.21s-1.4 2.14-2.76 3.42l-5.61 5.34h9.9Zm8.821-9.57c2.96 0 5.15.58 6.57 1.74 1.42 1.14 2.13 2.7 2.13 4.68 0 1.26-.31 2.4-.93 3.42-.62 1.02-1.55 1.83-2.79 2.43-1.24.6-2.77.9-4.59.9-1.5 0-2.95-.21-4.35-.63-1.4-.44-2.58-1.04-3.54-1.8l1.65-3.03c.78.64 1.71 1.15 2.79 1.53 1.1.36 2.23.54 3.39.54 1.38 0 2.46-.28 3.24-.84.8-.58 1.2-1.37 1.2-2.37 0-1.08-.43-1.89-1.29-2.43-.84-.56-2.29-.84-4.35-.84h-5.07l1.08-11.43h12.33v3.27h-9.03l-.45 4.86h2.01Zm26.409-8.13v2.61l-8.16 18.39h-4.17l7.89-17.7h-8.25v3.57h-3.63V155h16.32Zm23.658 21.3c-1.68 0-3.18-.42-4.5-1.26-1.32-.86-2.36-2.1-3.12-3.72-.76-1.64-1.14-3.58-1.14-5.82s.38-4.17 1.14-5.79c.76-1.64 1.8-2.88 3.12-3.72 1.32-.86 2.82-1.29 4.5-1.29 1.68 0 3.18.43 4.5 1.29 1.34.84 2.39 2.08 3.15 3.72.76 1.62 1.14 3.55 1.14 5.79s-.38 4.18-1.14 5.82c-.76 1.62-1.81 2.86-3.15 3.72-1.32.84-2.82 1.26-4.5 1.26Zm0-3.39c1.5 0 2.68-.62 3.54-1.86.88-1.24 1.32-3.09 1.32-5.55s-.44-4.31-1.32-5.55c-.86-1.24-2.04-1.86-3.54-1.86-1.48 0-2.66.62-3.54 1.86-.86 1.24-1.29 3.09-1.29 5.55s.43 4.31 1.29 5.55c.88 1.24 2.06 1.86 3.54 1.86ZM322.619 155v21h-3.9v-17.73h-4.44V155h8.34Zm17.786 9.96c1.1.5 1.94 1.18 2.52 2.04.6.84.9 1.83.9 2.97 0 1.28-.36 2.4-1.08 3.36-.7.96-1.7 1.7-3 2.22-1.3.5-2.81.75-4.53.75-1.72 0-3.23-.25-4.53-.75-1.28-.52-2.27-1.26-2.97-2.22-.7-.96-1.05-2.08-1.05-3.36 0-1.14.29-2.13.87-2.97.58-.86 1.41-1.54 2.49-2.04-.84-.46-1.49-1.06-1.95-1.8-.44-.76-.66-1.63-.66-2.61 0-1.18.32-2.21.96-3.09.66-.88 1.58-1.56 2.76-2.04 1.18-.48 2.54-.72 4.08-.72 1.56 0 2.93.24 4.11.72 1.18.48 2.1 1.16 2.76 2.04.66.88.99 1.91.99 3.09 0 .98-.23 1.84-.69 2.58-.46.74-1.12 1.35-1.98 1.83Zm-5.19-7.2c-1.22 0-2.19.26-2.91.78-.7.52-1.05 1.25-1.05 2.19 0 .9.35 1.62 1.05 2.16.72.52 1.69.78 2.91.78 1.24 0 2.22-.26 2.94-.78.72-.54 1.08-1.26 1.08-2.16 0-.94-.37-1.67-1.11-2.19-.72-.52-1.69-.78-2.91-.78Zm0 15.48c1.44 0 2.58-.3 3.42-.9.84-.6 1.26-1.43 1.26-2.49 0-1.04-.42-1.86-1.26-2.46-.84-.6-1.98-.9-3.42-.9s-2.57.3-3.39.9c-.82.6-1.23 1.42-1.23 2.46 0 1.06.41 1.89 1.23 2.49.82.6 1.95.9 3.39.9Zm18.22-18.54c2.88 0 5.11.9 6.69 2.7 1.6 1.8 2.4 4.38 2.4 7.74 0 2.36-.43 4.38-1.29 6.06-.86 1.66-2.07 2.93-3.63 3.81-1.54.86-3.33 1.29-5.37 1.29-1.08 0-2.1-.11-3.06-.33-.94-.24-1.76-.58-2.46-1.02l1.44-2.94c1.04.68 2.37 1.02 3.99 1.02 2.02 0 3.6-.62 4.74-1.86 1.14-1.24 1.71-3.03 1.71-5.37v-.03c-.62.72-1.41 1.27-2.37 1.65-.96.36-2.04.54-3.24.54-1.38 0-2.62-.26-3.72-.78-1.1-.54-1.96-1.3-2.58-2.28-.62-.98-.93-2.11-.93-3.39 0-1.36.34-2.55 1.02-3.57.68-1.04 1.6-1.84 2.76-2.4 1.16-.56 2.46-.84 3.9-.84Zm.3 10.2c1.26 0 2.28-.34 3.06-1.02.8-.68 1.2-1.54 1.2-2.58 0-1.02-.39-1.86-1.17-2.52-.76-.68-1.82-1.02-3.18-1.02-1.22 0-2.21.33-2.97.99-.76.64-1.14 1.5-1.14 2.58 0 1.1.38 1.97 1.14 2.61.76.64 1.78.96 3.06.96Zm42.305 6.33h-3.72V176h-3.78v-4.77h-11.52v-2.7L387.37 155h4.17l-9.75 12.93h6.87v-4.23h3.66v4.23h3.72v3.3Zm10.288-7.56c1.94.24 3.42.9 4.44 1.98 1.02 1.08 1.53 2.43 1.53 4.05 0 1.22-.31 2.33-.93 3.33-.62 1-1.56 1.8-2.82 2.4-1.24.58-2.76.87-4.56.87-1.5 0-2.95-.21-4.35-.63-1.38-.44-2.56-1.04-3.54-1.8l1.68-3.03c.76.64 1.68 1.15 2.76 1.53 1.1.36 2.23.54 3.39.54 1.38 0 2.46-.28 3.24-.84.8-.58 1.2-1.36 1.2-2.34 0-.98-.38-1.74-1.14-2.28-.74-.56-1.88-.84-3.42-.84h-1.92v-2.67l4.77-5.67h-9.54V155h14.31v2.61l-5.1 6.06Zm23.585 9.03v3.3h-15.48v-2.61l8.34-7.92c.94-.9 1.57-1.68 1.89-2.34.34-.68.51-1.35.51-2.01 0-.98-.33-1.73-.99-2.25-.66-.52-1.63-.78-2.91-.78-2.14 0-3.78.73-4.92 2.19l-2.73-2.1c.82-1.1 1.92-1.95 3.3-2.55 1.4-.62 2.96-.93 4.68-.93 2.28 0 4.1.54 5.46 1.62 1.36 1.08 2.04 2.55 2.04 4.41 0 1.14-.24 2.21-.72 3.21s-1.4 2.14-2.76 3.42l-5.61 5.34h9.9Zm18.003-17.7v2.61l-8.16 18.39h-4.17l7.89-17.7h-8.25v3.57h-3.63V155h16.32Z" fill="#fff"/><path d="M134.695 233.5 130.09 244h-1.485l-4.62-10.5h1.62l3.78 8.625 3.81-8.625h1.5Zm3.423 2.475c1.1 0 1.94.27 2.52.81.59.54.885 1.345.885 2.415v4.8h-1.365v-1.05c-.24.37-.585.655-1.035.855-.44.19-.965.285-1.575.285-.89 0-1.605-.215-2.145-.645-.53-.43-.795-.995-.795-1.695 0-.7.255-1.26.765-1.68.51-.43 1.32-.645 2.43-.645h2.28v-.285c0-.62-.18-1.095-.54-1.425-.36-.33-.89-.495-1.59-.495-.47 0-.93.08-1.38.24-.45.15-.83.355-1.14.615l-.6-1.08c.41-.33.9-.58 1.47-.75.57-.18 1.175-.27 1.815-.27Zm-.33 7.005c.55 0 1.025-.12 1.425-.36.4-.25.69-.6.87-1.05v-1.11h-2.22c-1.22 0-1.83.41-1.83 1.23 0 .4.155.715.465.945.31.23.74.345 1.29.345Zm6.4-10.11h1.44V244h-1.44v-11.13Zm4.19 3.18h1.44V244h-1.44v-7.95Zm.72-1.53a.986.986 0 0 1-.705-.27.898.898 0 0 1-.27-.66c0-.26.09-.48.27-.66a.958.958 0 0 1 .705-.285c.28 0 .51.09.69.27.19.17.285.385.285.645 0 .27-.095.5-.285.69-.18.18-.41.27-.69.27Zm10.969-1.65V244h-1.38v-1.26c-.32.44-.725.775-1.215 1.005-.49.23-1.03.345-1.62.345-.77 0-1.46-.17-2.07-.51a3.72 3.72 0 0 1-1.44-1.425c-.34-.62-.51-1.33-.51-2.13 0-.8.17-1.505.51-2.115a3.72 3.72 0 0 1 1.44-1.425c.61-.34 1.3-.51 2.07-.51.57 0 1.095.11 1.575.33.48.21.88.525 1.2.945v-4.38h1.44Zm-4.095 9.96c.5 0 .955-.115 1.365-.345.41-.24.73-.57.96-.99.23-.43.345-.92.345-1.47 0-.55-.115-1.035-.345-1.455-.23-.43-.55-.76-.96-.99a2.742 2.742 0 0 0-1.365-.345c-.51 0-.97.115-1.38.345-.4.23-.72.56-.96.99-.23.42-.345.905-.345 1.455s.115 1.04.345 1.47c.24.42.56.75.96.99.41.23.87.345 1.38.345Zm15.318.705c-.21.18-.47.32-.78.42-.31.09-.63.135-.96.135-.8 0-1.42-.215-1.86-.645-.44-.43-.66-1.045-.66-1.845v-4.365h-1.35v-1.185h1.35v-1.74h1.44v1.74h2.28v1.185h-2.28v4.305c0 .43.105.76.315.99.22.23.53.345.93.345.44 0 .815-.125 1.125-.375l.45 1.035Zm1.741-7.485h1.44V244h-1.44v-7.95Zm.72-1.53a.986.986 0 0 1-.705-.27.898.898 0 0 1-.27-.66c0-.26.09-.48.27-.66a.958.958 0 0 1 .705-.285c.28 0 .51.09.69.27.19.17.285.385.285.645 0 .27-.095.5-.285.69-.18.18-.41.27-.69.27Zm3.469-1.65h1.44V244h-1.44v-11.13Zm4.19 0h1.44V244h-1.44v-11.13Z" fill="#DDD"/><path d="M130.441 265.228c-1.102 0-2.084-.272-2.945-.817-.861-.545-1.539-1.33-2.033-2.356-.481-1.039-.722-2.274-.722-3.705s.241-2.66.722-3.686c.494-1.039 1.172-1.83 2.033-2.375.861-.545 1.843-.817 2.945-.817 1.102 0 2.084.272 2.945.817.861.545 1.533 1.336 2.014 2.375.494 1.026.741 2.255.741 3.686s-.247 2.666-.741 3.705c-.481 1.026-1.153 1.811-2.014 2.356-.861.545-1.843.817-2.945.817Zm0-2.603c.811 0 1.444-.348 1.9-1.045.469-.697.703-1.773.703-3.23s-.234-2.533-.703-3.23c-.456-.697-1.089-1.045-1.9-1.045-.798 0-1.431.348-1.9 1.045-.456.697-.684 1.773-.684 3.23s.228 2.533.684 3.23c.469.697 1.102 1.045 1.9 1.045Zm11.87-11.153c1.862 0 3.318.57 4.37 1.71 1.051 1.127 1.577 2.755 1.577 4.883 0 1.507-.285 2.799-.855 3.876-.558 1.077-1.349 1.894-2.375 2.451-1.026.557-2.211.836-3.553.836-.71 0-1.387-.076-2.033-.228-.646-.165-1.197-.393-1.653-.684l1.14-2.261c.646.443 1.475.665 2.489.665 1.127 0 2.02-.329 2.679-.988.658-.671 1.013-1.634 1.064-2.888-.798.798-1.9 1.197-3.306 1.197-.849 0-1.622-.171-2.318-.513a4.067 4.067 0 0 1-1.653-1.444c-.406-.633-.608-1.362-.608-2.185 0-.887.221-1.666.665-2.337a4.287 4.287 0 0 1 1.805-1.539c.772-.367 1.627-.551 2.565-.551Zm.228 6.27c.671 0 1.216-.184 1.634-.551.43-.38.646-.861.646-1.444s-.209-1.058-.627-1.425c-.406-.367-.969-.551-1.691-.551-.659 0-1.197.177-1.615.532-.406.355-.608.836-.608 1.444s.202 1.096.608 1.463c.418.355.969.532 1.653.532Zm11.726-8.74h2.641l-6.27 17.898h-2.641l6.27-17.898Zm12.476 13.49V265h-10.052v-1.995l5.131-4.845c.544-.519.912-.963 1.102-1.33.19-.38.285-.754.285-1.121 0-.532-.184-.937-.551-1.216-.355-.291-.881-.437-1.578-.437-.582 0-1.108.114-1.576.342a2.937 2.937 0 0 0-1.178.988l-2.242-1.444c.519-.773 1.235-1.374 2.147-1.805.912-.443 1.957-.665 3.135-.665.988 0 1.849.165 2.584.494.747.317 1.323.773 1.729 1.368.418.583.627 1.273.627 2.071 0 .722-.152 1.4-.456 2.033-.304.633-.893 1.355-1.767 2.166l-3.059 2.888h5.719Zm13.263-.285h-2.166V265h-3.002v-2.793h-7.163v-2.071l6.27-8.436h3.23l-5.814 7.999h3.572v-2.489h2.907v2.489h2.166v2.508ZM129.33 325.3c-1.62 0-3.19-.23-4.71-.69-1.5-.46-2.69-1.07-3.57-1.83l1.35-3.03c.86.68 1.91 1.24 3.15 1.68 1.26.42 2.52.63 3.78.63 1.56 0 2.72-.25 3.48-.75.78-.5 1.17-1.16 1.17-1.98 0-.6-.22-1.09-.66-1.47-.42-.4-.96-.71-1.62-.93-.66-.22-1.56-.47-2.7-.75-1.6-.38-2.9-.76-3.9-1.14-.98-.38-1.83-.97-2.55-1.77-.7-.82-1.05-1.92-1.05-3.3 0-1.16.31-2.21.93-3.15.64-.96 1.59-1.72 2.85-2.28 1.28-.56 2.84-.84 4.68-.84 1.28 0 2.54.16 3.78.48 1.24.32 2.31.78 3.21 1.38l-1.23 3.03c-.92-.54-1.88-.95-2.88-1.23s-1.97-.42-2.91-.42c-1.54 0-2.69.26-3.45.78-.74.52-1.11 1.21-1.11 2.07 0 .6.21 1.09.63 1.47.44.38.99.68 1.65.9.66.22 1.56.47 2.7.75 1.56.36 2.84.74 3.84 1.14 1 .38 1.85.97 2.55 1.77.72.8 1.08 1.88 1.08 3.24 0 1.16-.32 2.21-.96 3.15-.62.94-1.57 1.69-2.85 2.25s-2.84.84-4.68.84Zm21.087-16.5c2.02 0 3.64.59 4.86 1.77 1.22 1.18 1.83 2.93 1.83 5.25V325h-3.75v-8.7c0-1.4-.33-2.45-.99-3.15-.66-.72-1.6-1.08-2.82-1.08-1.38 0-2.47.42-3.27 1.26-.8.82-1.2 2.01-1.2 3.57v8.1h-3.75v-22.26h3.75v8.1c.62-.66 1.38-1.16 2.28-1.5.92-.36 1.94-.54 3.06-.54Zm17.567 0c2.36 0 4.16.57 5.4 1.71 1.26 1.12 1.89 2.82 1.89 5.1V325h-3.54v-1.95c-.46.7-1.12 1.24-1.98 1.62-.84.36-1.86.54-3.06.54s-2.25-.2-3.15-.6c-.9-.42-1.6-.99-2.1-1.71-.48-.74-.72-1.57-.72-2.49 0-1.44.53-2.59 1.59-3.45 1.08-.88 2.77-1.32 5.07-1.32h4.14v-.24c0-1.12-.34-1.98-1.02-2.58-.66-.6-1.65-.9-2.97-.9-.9 0-1.79.14-2.67.42-.86.28-1.59.67-2.19 1.17l-1.47-2.73c.84-.64 1.85-1.13 3.03-1.47 1.18-.34 2.43-.51 3.75-.51Zm-.51 13.68c.94 0 1.77-.21 2.49-.63.74-.44 1.26-1.06 1.56-1.86v-1.86h-3.87c-2.16 0-3.24.71-3.24 2.13 0 .68.27 1.22.81 1.62.54.4 1.29.6 2.25.6Zm16.183-11.16c1.08-1.68 2.98-2.52 5.7-2.52v3.57a4.76 4.76 0 0 0-.87-.09c-1.46 0-2.6.43-3.42 1.29-.82.84-1.23 2.06-1.23 3.66V325h-3.75v-16.02h3.57v2.34Zm14.913-2.52c2.36 0 4.16.57 5.4 1.71 1.26 1.12 1.89 2.82 1.89 5.1V325h-3.54v-1.95c-.46.7-1.12 1.24-1.98 1.62-.84.36-1.86.54-3.06.54s-2.25-.2-3.15-.6c-.9-.42-1.6-.99-2.1-1.71-.48-.74-.72-1.57-.72-2.49 0-1.44.53-2.59 1.59-3.45 1.08-.88 2.77-1.32 5.07-1.32h4.14v-.24c0-1.12-.34-1.98-1.02-2.58-.66-.6-1.65-.9-2.97-.9-.9 0-1.79.14-2.67.42-.86.28-1.59.67-2.19 1.17l-1.47-2.73c.84-.64 1.85-1.13 3.03-1.47 1.18-.34 2.43-.51 3.75-.51Zm-.51 13.68c.94 0 1.77-.21 2.49-.63.74-.44 1.26-1.06 1.56-1.86v-1.86h-3.87c-2.16 0-3.24.71-3.24 2.13 0 .68.27 1.22.81 1.62.54.4 1.29.6 2.25.6Zm21.493-13.68c1.56 0 2.95.34 4.17 1.02 1.24.68 2.21 1.64 2.91 2.88.7 1.24 1.05 2.67 1.05 4.29s-.35 3.06-1.05 4.32c-.7 1.24-1.67 2.2-2.91 2.88-1.22.68-2.61 1.02-4.17 1.02-2.16 0-3.87-.72-5.13-2.16v7.77h-3.75v-21.84h3.57v2.1c.62-.76 1.38-1.33 2.28-1.71.92-.38 1.93-.57 3.03-.57Zm-.42 13.2c1.38 0 2.51-.46 3.39-1.38.9-.92 1.35-2.13 1.35-3.63s-.45-2.71-1.35-3.63c-.88-.92-2.01-1.38-3.39-1.38-.9 0-1.71.21-2.43.63-.72.4-1.29.98-1.71 1.74-.42.76-.63 1.64-.63 2.64 0 1 .21 1.88.63 2.64.42.76.99 1.35 1.71 1.77.72.4 1.53.6 2.43.6Zm12.106-13.02h3.75V325h-3.75v-16.02Zm1.89-2.64c-.68 0-1.25-.21-1.71-.63-.46-.44-.69-.98-.69-1.62 0-.64.23-1.17.69-1.59.46-.44 1.03-.66 1.71-.66.68 0 1.25.21 1.71.63.46.4.69.91.69 1.53 0 .66-.23 1.22-.69 1.68-.44.44-1.01.66-1.71.66Zm29.053 13.8h-10.5l-2.07 4.86h-4.02l9.45-21h3.84l9.48 21h-4.08l-2.1-4.86Zm-1.29-3.06-3.96-9.18-3.93 9.18h7.89Zm30.001-8.28c2.02 0 3.62.59 4.8 1.77 1.18 1.16 1.77 2.91 1.77 5.25V325h-3.75v-8.7c0-1.4-.31-2.45-.93-3.15-.62-.72-1.51-1.08-2.67-1.08-1.26 0-2.27.42-3.03 1.26-.76.82-1.14 2-1.14 3.54V325h-3.75v-8.7c0-1.4-.31-2.45-.93-3.15-.62-.72-1.51-1.08-2.67-1.08-1.28 0-2.3.41-3.06 1.23-.74.82-1.11 2.01-1.11 3.57V325h-3.75v-16.02h3.57v2.04a5.83 5.83 0 0 1 2.25-1.65c.9-.38 1.9-.57 3-.57 1.2 0 2.26.23 3.18.69.94.44 1.68 1.1 2.22 1.98.66-.84 1.51-1.49 2.55-1.95 1.04-.48 2.19-.72 3.45-.72Zm17.482 0c2.36 0 4.16.57 5.4 1.71 1.26 1.12 1.89 2.82 1.89 5.1V325h-3.54v-1.95c-.46.7-1.12 1.24-1.98 1.62-.84.36-1.86.54-3.06.54s-2.25-.2-3.15-.6c-.9-.42-1.6-.99-2.1-1.71-.48-.74-.72-1.57-.72-2.49 0-1.44.53-2.59 1.59-3.45 1.08-.88 2.77-1.32 5.07-1.32h4.14v-.24c0-1.12-.34-1.98-1.02-2.58-.66-.6-1.65-.9-2.97-.9-.9 0-1.79.14-2.67.42-.86.28-1.59.67-2.19 1.17l-1.47-2.73c.84-.64 1.85-1.13 3.03-1.47 1.18-.34 2.43-.51 3.75-.51Zm-.51 13.68c.94 0 1.77-.21 2.49-.63.74-.44 1.26-1.06 1.56-1.86v-1.86h-3.87c-2.16 0-3.24.71-3.24 2.13 0 .68.27 1.22.81 1.62.54.4 1.29.6 2.25.6Zm21.703-13.68c2.02 0 3.64.59 4.86 1.77 1.22 1.18 1.83 2.93 1.83 5.25V325h-3.75v-8.7c0-1.4-.33-2.45-.99-3.15-.66-.72-1.6-1.08-2.82-1.08-1.38 0-2.47.42-3.27 1.26-.8.82-1.2 2.01-1.2 3.57v8.1h-3.75v-16.02h3.57v2.07c.62-.74 1.4-1.3 2.34-1.68.94-.38 2-.57 3.18-.57Zm299.498 5.977a13.029 13.029 0 0 0-4.501-.777c-4.954 0-8.455 2.502-8.476 6.082-.041 2.631 2.482 4.114 4.388 5.001 1.959.908 2.614 1.473 2.604 2.279-.009 1.241-1.565 1.795-2.997 1.795-1.99 0-3.069-.271-4.733-.968l-.618-.293-.706 4.136c1.211.494 3.381.927 5.621.968 5.278 0 8.719-2.48 8.758-6.304.04-2.097-1.31-3.689-4.187-5.001-1.736-.847-2.823-1.424-2.823-2.291 0-.767.928-1.572 2.865-1.572a9.229 9.229 0 0 1 3.753.695l.475.211.695-3.983-.118.022Zm12.879-.434h-3.875c-1.211 0-2.11.323-2.645 1.524l-7.448 16.87h5.268l1.062-2.763 6.427.009c.161.645.614 2.752.614 2.752H646l-4.055-18.392Zm-32.99-.151h5.016l-3.139 18.401h-5.016l3.139-18.411v.01ZM596.2 324.326l.514 2.561 4.913-12.544h5.319l-7.913 18.363h-5.295l-4.34-15.55a.993.993 0 0 0-.475-.614 21.203 21.203 0 0 0-4.923-1.825l.06-.386h8.093c1.091.041 1.978.386 2.28 1.555l1.767 8.45v-.01Zm39.537 1.886 2.009-5.152c-.031.048.413-1.06.665-1.757l.343 1.582 1.162 5.315h-4.179v.012Z" fill="#fff"/><path d="m135 47-15 18h13.5L132 77l15-18h-13.5l1.5-12Z" stroke="#fff" stroke-width="2.5" stroke-linecap="round" stroke-linejoin="round"/><path d="M637.125 50.833c3.769 3.071 5.833 6.941 5.833 10.938 0 3.996-2.064 7.867-5.833 10.937M644.417 45c4.699 4.633 7.291 10.596 7.291 16.77 0 6.176-2.592 12.14-7.291 16.772m-13.125-21.875c.948 1.49 1.458 3.275 1.458 5.104 0 1.829-.51 3.613-1.458 5.104" stroke="#fff" stroke-width="3.5" stroke-linecap="round" stroke-linejoin="round"/></g><defs><linearGradient id="c" x1="-92" y1="-67.5" x2="638.5" y2="307.5" gradientUnits="userSpaceOnUse"><stop stop-color="#007CFF"/><stop offset="1" stop-color="#90F"/></linearGradient><clipPath id="b"><rect x="70" width="640" height="372" rx="15" fill="#fff"/></clipPath><filter id="a" x="0" y="138" width="759" height="379" filterUnits="userSpaceOnUse" color-interpolation-filters="sRGB"><feFlood flood-opacity="0" result="BackgroundImageFix"/><feBlend in="SourceGraphic" in2="BackgroundImageFix" result="shape"/><feGaussianBlur stdDeviation="50" result="effect1_foregroundBlur_8_5"/></filter></defs></svg>