<svg width="759" height="507" fill="none" xmlns="http://www.w3.org/2000/svg"><g filter="url(#a)"><path fill="#007CFF" fill-opacity=".37" d="M100 228h559v179H100z"/><path fill="#000" fill-opacity=".2" d="M100 228h559v179H100z"/></g><g clip-path="url(#b)"><rect x="59" width="640" height="372" rx="15" fill="url(#c)"/><circle cx="73" cy="457" r="329" fill="#000" fill-opacity=".1"/><circle cx="908.5" cy="699.5" r="563.5" fill="#000" fill-opacity=".1"/><circle cx="625.5" cy="103.5" r="237.5" fill="#fff" fill-opacity=".1"/><path d="M135.4 47.2V92h-8.512l-22.336-27.2V92h-10.24V47.2h8.576l22.272 27.2V47.2h10.24Zm20.968 8.32v11.84h20.736v8.32h-20.736V92H146V47.2h33.856v8.32h-23.488Zm51.509 37.248c-4.565 0-8.704-.981-12.416-2.944-3.669-2.005-6.571-4.757-8.704-8.256-2.091-3.541-3.136-7.53-3.136-11.968 0-4.437 1.045-8.405 3.136-11.904 2.133-3.541 5.035-6.293 8.704-8.256 3.712-2.005 7.872-3.008 12.48-3.008 3.883 0 7.381.683 10.496 2.048 3.157 1.365 5.803 3.328 7.936 5.888l-6.656 6.144c-3.029-3.499-6.784-5.248-11.264-5.248-2.773 0-5.248.619-7.424 1.856-2.176 1.195-3.883 2.88-5.12 5.056-1.195 2.176-1.792 4.65-1.792 7.424 0 2.773.597 5.248 1.792 7.424a13.411 13.411 0 0 0 5.12 5.12c2.176 1.195 4.651 1.792 7.424 1.792 4.48 0 8.235-1.77 11.264-5.312l6.656 6.144c-2.133 2.603-4.779 4.587-7.936 5.952-3.157 1.365-6.677 2.048-10.56 2.048ZM101.54 135.3c-2.12 0-4.04-.46-5.76-1.38-1.7-.94-3.04-2.23-4.02-3.87-.96-1.64-1.44-3.49-1.44-5.55 0-2.06.49-3.91 1.47-5.55a10.31 10.31 0 0 1 4.02-3.84c1.72-.94 3.64-1.41 5.76-1.41 1.72 0 3.29.3 4.71.9 1.42.6 2.62 1.47 3.6 2.61l-2.52 2.37c-1.52-1.64-3.39-2.46-5.61-2.46-1.44 0-2.73.32-3.87.96a6.705 6.705 0 0 0-2.67 2.61c-.64 1.12-.96 2.39-.96 3.81s.32 2.69.96 3.81c.64 1.12 1.53 2 2.67 2.64 1.14.62 2.43.93 3.87.93 2.22 0 4.09-.83 5.61-2.49l2.52 2.4c-.98 1.14-2.19 2.01-3.63 2.61-1.42.6-2.99.9-4.71.9Zm25.257-5.16h-10.5l-2.07 4.86h-4.02l9.45-21h3.84l9.48 21h-4.08l-2.1-4.86Zm-1.29-3.06-3.96-9.18-3.93 9.18h7.89Zm23.881 7.92-4.29-6.15c-.18.02-.45.03-.81.03h-4.74V135h-3.9v-21h8.64c1.82 0 3.4.3 4.74.9 1.36.6 2.4 1.46 3.12 2.58.72 1.12 1.08 2.45 1.08 3.99 0 1.58-.39 2.94-1.17 4.08-.76 1.14-1.86 1.99-3.3 2.55l4.83 6.9h-4.2Zm-.09-13.53c0-1.34-.44-2.37-1.32-3.09-.88-.72-2.17-1.08-3.87-1.08h-4.56v8.37h4.56c1.7 0 2.99-.36 3.87-1.08.88-.74 1.32-1.78 1.32-3.12Zm8.293-7.47h9.18c2.24 0 4.23.44 5.97 1.32 1.74.86 3.09 2.09 4.05 3.69.96 1.58 1.44 3.41 1.44 5.49s-.48 3.92-1.44 5.52c-.96 1.58-2.31 2.81-4.05 3.69-1.74.86-3.73 1.29-5.97 1.29h-9.18v-21Zm9 17.7c1.54 0 2.89-.29 4.05-.87 1.18-.6 2.08-1.44 2.7-2.52.64-1.1.96-2.37.96-3.81s-.32-2.7-.96-3.78c-.62-1.1-1.52-1.94-2.7-2.52-1.16-.6-2.51-.9-4.05-.9h-5.1v14.4h5.1ZM91.58 334v-19.62h6.09c1.02 0 1.95.09 2.79.27.86.16 1.59.43 2.19.81.62.36 1.1.85 1.44 1.47.36.62.54 1.38.54 2.28 0 .94-.28 1.81-.84 2.61-.54.8-1.39 1.35-2.55 1.65v.12c1.42.24 2.51.74 3.27 1.5.76.76 1.14 1.81 1.14 3.15 0 .98-.19 1.83-.57 2.55-.36.72-.88 1.32-1.56 1.8-.66.48-1.45.84-2.37 1.08-.9.22-1.89.33-2.97.33h-6.6Zm3.48-11.55h2.31c1.38 0 2.36-.24 2.94-.72.6-.48.9-1.18.9-2.1 0-.9-.31-1.53-.93-1.89-.62-.38-1.57-.57-2.85-.57h-2.37v5.28Zm0 8.76h2.76c1.44 0 2.53-.25 3.27-.75.76-.52 1.14-1.34 1.14-2.46 0-1.04-.37-1.78-1.11-2.22-.72-.46-1.82-.69-3.3-.69h-2.76v6.12Zm20.958 3.15c-2.14 0-3.82-.64-5.04-1.92-1.22-1.28-1.83-3.26-1.83-5.94v-12.12h3.48v12.39c0 1.62.3 2.79.9 3.51.6.7 1.43 1.05 2.49 1.05 1.08 0 1.93-.35 2.55-1.05.62-.72.93-1.89.93-3.51v-12.39h3.33v12.12c0 2.7-.59 4.69-1.77 5.97-1.18 1.26-2.86 1.89-5.04 1.89Zm18.019 0c-1.38 0-2.7-.25-3.96-.75-1.26-.5-2.38-1.21-3.36-2.13l2.04-2.37c.74.66 1.58 1.2 2.52 1.62.94.4 1.93.6 2.97.6 1.14 0 2.01-.22 2.61-.66.6-.44.9-1.01.9-1.71 0-.44-.08-.8-.24-1.08-.16-.3-.39-.56-.69-.78a4.68 4.68 0 0 0-1.05-.6c-.4-.18-.84-.37-1.32-.57l-2.67-1.17c-.52-.2-1.03-.45-1.53-.75s-.95-.66-1.35-1.08c-.4-.42-.72-.91-.96-1.47-.24-.56-.36-1.2-.36-1.92 0-.78.17-1.5.51-2.16.34-.68.81-1.27 1.41-1.77.6-.5 1.31-.89 2.13-1.17.84-.28 1.76-.42 2.76-.42 1.2 0 2.34.23 3.42.69 1.1.44 2.06 1.04 2.88 1.8l-1.8 2.22c-.66-.52-1.36-.93-2.1-1.23-.72-.3-1.58-.45-2.58-.45-.94 0-1.7.2-2.28.6-.56.4-.84.97-.84 1.71 0 .38.09.71.27.99.18.26.42.5.72.72.32.2.68.38 1.08.54.42.16.85.33 1.29.51l2.58 1.11c.62.24 1.19.52 1.71.84.52.32.97.69 1.35 1.11.38.42.67.91.87 1.47.22.54.33 1.17.33 1.89 0 .8-.17 1.55-.51 2.25-.32.7-.79 1.32-1.41 1.86-.62.52-1.38.94-2.28 1.26-.9.3-1.92.45-3.06.45Zm11.448-.36v-2.94h4.74v-13.74h-4.74v-2.94h12.96v2.94h-4.74v13.74h4.74V334h-12.96Zm17.688 0v-19.62h3.66l5.19 11.01 1.77 4.2h.09c-.08-1.02-.18-2.11-.3-3.27-.12-1.18-.18-2.32-.18-3.42v-8.52h3.33V334h-3.66l-5.19-11.04-1.77-4.17h-.09c.08 1.06.18 2.16.3 3.3.12 1.12.18 2.23.18 3.33V334h-3.33Zm18.858 0v-19.62h12.57v2.94h-9.09v5.01h7.71v2.94h-7.71v5.79h9.39V334h-12.87Zm23.959.36c-1.38 0-2.7-.25-3.96-.75-1.26-.5-2.38-1.21-3.36-2.13l2.04-2.37c.74.66 1.58 1.2 2.52 1.62.94.4 1.93.6 2.97.6 1.14 0 2.01-.22 2.61-.66.6-.44.9-1.01.9-1.71 0-.44-.08-.8-.24-1.08-.16-.3-.39-.56-.69-.78a4.68 4.68 0 0 0-1.05-.6c-.4-.18-.84-.37-1.32-.57l-2.67-1.17c-.52-.2-1.03-.45-1.53-.75s-.95-.66-1.35-1.08c-.4-.42-.72-.91-.96-1.47-.24-.56-.36-1.2-.36-1.92 0-.78.17-1.5.51-2.16.34-.68.81-1.27 1.41-1.77.6-.5 1.31-.89 2.13-1.17.84-.28 1.76-.42 2.76-.42 1.2 0 2.34.23 3.42.69 1.1.44 2.06 1.04 2.88 1.8l-1.8 2.22c-.66-.52-1.36-.93-2.1-1.23-.72-.3-1.58-.45-2.58-.45-.94 0-1.7.2-2.28.6-.56.4-.84.97-.84 1.71 0 .38.09.71.27.99.18.26.42.5.72.72.32.2.68.38 1.08.54.42.16.85.33 1.29.51l2.58 1.11c.62.24 1.19.52 1.71.84.52.32.97.69 1.35 1.11.38.42.67.91.87 1.47.22.54.33 1.17.33 1.89 0 .8-.17 1.55-.51 2.25-.32.7-.79 1.32-1.41 1.86-.62.52-1.38.94-2.28 1.26-.9.3-1.92.45-3.06.45Zm17.988 0c-1.38 0-2.7-.25-3.96-.75-1.26-.5-2.38-1.21-3.36-2.13l2.04-2.37c.74.66 1.58 1.2 2.52 1.62.94.4 1.93.6 2.97.6 1.14 0 2.01-.22 2.61-.66.6-.44.9-1.01.9-1.71 0-.44-.08-.8-.24-1.08-.16-.3-.39-.56-.69-.78a4.68 4.68 0 0 0-1.05-.6c-.4-.18-.84-.37-1.32-.57l-2.67-1.17c-.52-.2-1.03-.45-1.53-.75s-.95-.66-1.35-1.08c-.4-.42-.72-.91-.96-1.47-.24-.56-.36-1.2-.36-1.92 0-.78.17-1.5.51-2.16.34-.68.81-1.27 1.41-1.77.6-.5 1.31-.89 2.13-1.17.84-.28 1.76-.42 2.76-.42 1.2 0 2.34.23 3.42.69 1.1.44 2.06 1.04 2.88 1.8l-1.8 2.22c-.66-.52-1.36-.93-2.1-1.23-.72-.3-1.58-.45-2.58-.45-.94 0-1.7.2-2.28.6-.56.4-.84.97-.84 1.71 0 .38.09.71.27.99.18.26.42.5.72.72.32.2.68.38 1.08.54.42.16.85.33 1.29.51l2.58 1.11c.62.24 1.19.52 1.71.84.52.32.97.69 1.35 1.11.38.42.67.91.87 1.47.22.54.33 1.17.33 1.89 0 .8-.17 1.55-.51 2.25-.32.7-.79 1.32-1.41 1.86-.62.52-1.38.94-2.28 1.26-.9.3-1.92.45-3.06.45Zm37.537 0c-1.22 0-2.37-.22-3.45-.66a7.923 7.923 0 0 1-2.79-1.95c-.8-.86-1.43-1.92-1.89-3.18-.46-1.26-.69-2.7-.69-4.32 0-1.6.23-3.03.69-4.29.46-1.28 1.09-2.36 1.89-3.24.82-.88 1.78-1.55 2.88-2.01 1.1-.46 2.3-.69 3.6-.69 1.22 0 2.3.25 3.24.75.96.5 1.75 1.07 2.37 1.71l-1.92 2.16c-.5-.48-1.05-.86-1.65-1.14-.6-.3-1.28-.45-2.04-.45-.82 0-1.57.17-2.25.51-.66.32-1.23.79-1.71 1.41-.48.6-.86 1.34-1.14 2.22-.26.88-.39 1.87-.39 2.97 0 1.12.13 2.13.39 3.03.28.88.66 1.63 1.14 2.25.48.6 1.06 1.07 1.74 1.41.7.32 1.47.48 2.31.48.8 0 1.52-.17 2.16-.51.66-.34 1.27-.82 1.83-1.44l1.92 2.13a8.23 8.23 0 0 1-2.73 2.13c-1.02.48-2.19.72-3.51.72Zm14.508-10.8-.69 2.4h4.98l-.69-2.4c-.28-1.04-.57-2.1-.87-3.18-.3-1.1-.59-2.2-.87-3.3h-.12c-.28 1.1-.57 2.2-.87 3.3-.28 1.08-.57 2.14-.87 3.18Zm-6.54 10.44 6.36-19.62h4.08l6.36 19.62h-3.69l-1.5-5.31h-6.54l-1.53 5.31h-3.54Zm19.908 0v-19.62h6.54c1.02 0 1.97.1 2.85.3.88.2 1.64.53 2.28.99a4.39 4.39 0 0 1 1.53 1.77c.38.74.57 1.66.57 2.76 0 1.5-.36 2.71-1.08 3.63-.7.92-1.64 1.58-2.82 1.98l4.68 8.19h-3.93l-4.2-7.68h-2.94V334h-3.48Zm3.48-10.44h2.7c1.36 0 2.39-.28 3.09-.84.72-.56 1.08-1.4 1.08-2.52 0-1.14-.36-1.93-1.08-2.37-.7-.44-1.73-.66-3.09-.66h-2.7v6.39ZM307.199 334v-19.62h5.16c2.9 0 5.16.81 6.78 2.43 1.64 1.62 2.46 4.05 2.46 7.29 0 1.62-.21 3.05-.63 4.29-.42 1.24-1.02 2.28-1.8 3.12-.78.82-1.73 1.44-2.85 1.86-1.12.42-2.38.63-3.78.63h-5.34Zm3.48-2.82h1.47c1.88 0 3.33-.57 4.35-1.71 1.02-1.16 1.53-2.95 1.53-5.37 0-2.4-.51-4.15-1.53-5.25-1.02-1.1-2.47-1.65-4.35-1.65h-1.47v13.98Zm133.465 2.444v-4.536h-4.272v-2.016h4.272v-4.536h2.112v4.536h4.272v2.016h-4.272v4.536h-2.112ZM457.407 336c.064-1.36.192-2.6.384-3.72.208-1.136.496-2.208.864-3.216a18.19 18.19 0 0 1 1.44-2.976 26.168 26.168 0 0 1 2.112-3.024h-8.232v-2.328h11.28v1.68c-.992 1.104-1.8 2.16-2.424 3.168a15.315 15.315 0 0 0-1.488 3.048 16.645 16.645 0 0 0-.792 3.36 44.43 44.43 0 0 0-.336 4.008h-2.808Zm19.262 4.248a15.247 15.247 0 0 1-3.84-4.752c-.928-1.824-1.392-3.88-1.392-6.168 0-2.288.464-4.344 1.392-6.168a15.247 15.247 0 0 1 3.84-4.752l1.536 1.272c-1.52 1.376-2.632 2.84-3.336 4.392-.704 1.552-1.056 3.304-1.056 5.256 0 1.952.352 3.704 1.056 5.256.704 1.552 1.816 3.016 3.336 4.392l-1.536 1.272Zm5.943-.6v-2.16h11.52v2.16h-11.52Zm14.391 0v-2.16h11.52v2.16h-11.52Zm14.39 0v-2.16h11.52v2.16h-11.52Zm17.463.6-1.536-1.272c1.52-1.376 2.632-2.84 3.336-4.392.704-1.552 1.056-3.304 1.056-5.256 0-1.952-.352-3.704-1.056-5.256-.704-1.552-1.816-3.016-3.336-4.392l1.536-1.272a14.949 14.949 0 0 1 3.816 4.752c.944 1.824 1.416 3.88 1.416 6.168 0 2.288-.472 4.344-1.416 6.168a14.949 14.949 0 0 1-3.816 4.752Zm11.318-.6v-2.16h11.52v2.16h-11.52Zm14.391 0v-2.16h11.52v2.16h-11.52Zm14.391 0v-2.16h11.52v2.16h-11.52Zm14.822-10.56v-2.016h10.656v2.016h-10.656Zm13.959 10.56v-2.16h11.52v2.16h-11.52Zm14.391 0v-2.16h11.52v2.16h-11.52Zm14.822-10.56v-2.016h10.656v2.016H626.95Zm13.959 10.56v-2.16h11.52v2.16h-11.52Zm14.39 0v-2.16h11.52v2.16h-11.52Zm-223.379-38.36a7.635 7.635 0 0 1-2.52-.408 6.362 6.362 0 0 1-2.064-1.224 5.694 5.694 0 0 1-1.368-1.944c-.336-.768-.504-1.64-.504-2.616 0-.96.168-1.816.504-2.568a5.862 5.862 0 0 1 1.344-1.944 5.79 5.79 0 0 1 1.944-1.224 6.267 6.267 0 0 1 2.304-.432c.88 0 1.656.144 2.328.432.672.272 1.24.656 1.704 1.152.464.48.816 1.064 1.056 1.752.24.688.36 1.44.36 2.256 0 .272-.016.536-.048.792-.016.24-.04.44-.072.6h-8.664c.16 1.104.6 1.92 1.32 2.448.72.528 1.632.792 2.736.792.624 0 1.2-.088 1.728-.264a8.678 8.678 0 0 0 1.584-.72l.936 1.728a8.494 8.494 0 0 1-2.136 1.008 7.913 7.913 0 0 1-2.472.384Zm-.288-10.224c-.816 0-1.536.24-2.16.72-.608.48-1 1.2-1.176 2.16h6.264c-.096-.96-.4-1.68-.912-2.16-.496-.48-1.168-.72-2.016-.72Zm7.983 9.936 4.272-6.12-3.984-5.664h3l1.536 2.232c.192.32.4.656.624 1.008l.672 1.008h.096c.176-.336.368-.68.576-1.032.208-.352.4-.688.576-1.008l1.392-2.208h2.904l-4.008 5.952 4.296 5.832h-3l-1.704-2.328-.72-1.032c-.24-.368-.48-.72-.72-1.056h-.096c-.224.352-.44.704-.648 1.056-.192.336-.4.688-.624 1.056L442.519 301h-2.904Zm18.806.288a4.57 4.57 0 0 1-1.584-.264 3.652 3.652 0 0 1-1.248-.696 3.166 3.166 0 0 1-.816-1.08 3.447 3.447 0 0 1-.288-1.416c0-.656.152-1.232.456-1.728.304-.512.784-.944 1.44-1.296.656-.352 1.496-.64 2.52-.864 1.024-.224 2.264-.384 3.72-.48-.048-.672-.288-1.224-.72-1.656-.432-.432-1.128-.648-2.088-.648a5.44 5.44 0 0 0-1.992.384c-.64.24-1.264.528-1.872.864l-1.008-1.848c.72-.416 1.544-.792 2.472-1.128a8.464 8.464 0 0 1 2.904-.504c1.648 0 2.904.44 3.768 1.32.864.864 1.296 2.12 1.296 3.768V301h-2.256l-.216-1.464h-.072c-.624.48-1.32.896-2.088 1.248a5.65 5.65 0 0 1-2.328.504Zm.84-2.16c.592 0 1.16-.128 1.704-.384a8.98 8.98 0 0 0 1.656-1.056v-2.496c-1.056.08-1.936.192-2.64.336-.704.128-1.264.296-1.68.504-.416.208-.712.448-.888.72a1.49 1.49 0 0 0-.264.864c0 .528.2.912.6 1.152.416.24.92.36 1.512.36Zm9.015 1.872v-11.784h2.136l.216 1.488h.072a3.93 3.93 0 0 1 .984-1.272c.4-.336.944-.504 1.632-.504 1.104 0 1.816.656 2.136 1.968.272-.576.616-1.048 1.032-1.416.416-.368.968-.552 1.656-.552.832 0 1.472.328 1.92.984.464.64.696 1.552.696 2.736V301h-2.664v-8.16c0-1.04-.312-1.56-.936-1.56-.32 0-.592.128-.816.384-.208.24-.432.608-.672 1.104V301h-2.304v-8.16c0-.512-.072-.896-.216-1.152-.144-.272-.384-.408-.72-.408-.32 0-.592.128-.816.384-.208.24-.424.608-.648 1.104V301h-2.688Zm15.255 4.656v-16.44h2.28l.216 1.344h.072a6.926 6.926 0 0 1 1.752-1.152c.672-.32 1.344-.48 2.016-.48.768 0 1.448.144 2.04.432a3.828 3.828 0 0 1 1.512 1.2c.416.528.728 1.16.936 1.896.224.736.336 1.56.336 2.472 0 1.008-.144 1.912-.432 2.712-.288.784-.68 1.448-1.176 1.992-.48.528-1.04.936-1.68 1.224a4.589 4.589 0 0 1-1.944.432c-.544 0-1.104-.12-1.68-.36a5.088 5.088 0 0 1-1.536-1.032h-.072l.144 2.064v3.696h-2.784Zm5.352-6.648c.848 0 1.552-.336 2.112-1.008.56-.688.84-1.704.84-3.048 0-1.184-.216-2.104-.648-2.76-.432-.656-1.128-.984-2.088-.984-.448 0-.904.112-1.369.336-.463.224-.935.584-1.415 1.08v5.304c.432.4.872.68 1.32.84.464.16.88.24 1.248.24Zm16.694 2.28c-1.376 0-2.424-.4-3.144-1.2-.704-.8-1.056-1.928-1.056-3.384V286.24h-3.936v-2.184h6.696v12.792c0 .8.2 1.368.6 1.704.416.32.92.48 1.512.48.624 0 1.296-.152 2.016-.456l.648 2.04c-.576.224-1.104.392-1.584.504-.48.112-1.064.168-1.752.168Zm12.687 0a7.635 7.635 0 0 1-2.52-.408 6.362 6.362 0 0 1-2.064-1.224 5.694 5.694 0 0 1-1.368-1.944c-.336-.768-.504-1.64-.504-2.616 0-.96.168-1.816.504-2.568a5.862 5.862 0 0 1 1.344-1.944 5.79 5.79 0 0 1 1.944-1.224 6.267 6.267 0 0 1 2.304-.432c.88 0 1.656.144 2.328.432.672.272 1.24.656 1.704 1.152.464.48.816 1.064 1.056 1.752.24.688.36 1.44.36 2.256 0 .272-.016.536-.048.792-.016.24-.04.44-.072.6h-8.664c.16 1.104.6 1.92 1.32 2.448.72.528 1.632.792 2.736.792.624 0 1.2-.088 1.728-.264a8.678 8.678 0 0 0 1.584-.72l.936 1.728a8.494 8.494 0 0 1-2.136 1.008 7.913 7.913 0 0 1-2.472.384Zm-.288-10.224c-.816 0-1.536.24-2.16.72-.608.48-1 1.2-1.176 2.16h6.264c-.096-.96-.4-1.68-.912-2.16-.496-.48-1.168-.72-2.016-.72Zm14.918 13.44c-.96 0-1.872-.2-2.736-.6-.864-.4-1.632-1-2.304-1.8-.656-.784-1.184-1.776-1.584-2.976-.384-1.2-.576-2.592-.576-4.176s.184-2.96.552-4.128c.384-1.168.896-2.136 1.536-2.904.64-.768 1.392-1.336 2.256-1.704a6.777 6.777 0 0 1 2.784-.576c.864 0 1.616.152 2.256.456.64.288 1.168.696 1.584 1.224.416.512.72 1.128.912 1.848.208.704.312 1.464.312 2.28v7.152h-1.536l-.216-1.296h-.096a4.38 4.38 0 0 1-1.272 1.128 3.448 3.448 0 0 1-1.752.456c-.432 0-.84-.08-1.224-.24a2.892 2.892 0 0 1-.96-.672 3.233 3.233 0 0 1-.648-1.032c-.16-.4-.24-.84-.24-1.32 0-1.248.536-2.184 1.608-2.808 1.088-.624 2.608-1.056 4.56-1.296v-.36a4.68 4.68 0 0 0-.216-1.44 3.5 3.5 0 0 0-.6-1.224 2.687 2.687 0 0 0-1.056-.816c-.432-.208-.936-.312-1.512-.312a4.14 4.14 0 0 0-1.872.456c-.608.304-1.152.768-1.632 1.392-.464.624-.84 1.424-1.128 2.4-.288.96-.432 2.104-.432 3.432 0 1.264.144 2.376.432 3.336.288.96.672 1.768 1.152 2.424.48.64 1.04 1.12 1.68 1.44a4.469 4.469 0 0 0 2.064.504c.72 0 1.328-.088 1.824-.264.496-.16.976-.4 1.44-.72l.864 1.416a9.088 9.088 0 0 1-1.992.96c-.656.24-1.4.36-2.232.36Zm.72-7.464c.384 0 .76-.104 1.128-.312a5.97 5.97 0 0 0 1.104-.888v-2.616c-1.392.208-2.376.496-2.952.864-.576.352-.864.848-.864 1.488 0 .464.136.824.408 1.08.288.256.68.384 1.176.384Zm12.375 9.168c-.816 0-1.552-.064-2.208-.192-.656-.128-1.224-.328-1.704-.6a2.93 2.93 0 0 1-1.08-.984c-.256-.384-.384-.84-.384-1.368 0-.96.624-1.784 1.872-2.472v-.096c-.32-.192-.6-.44-.84-.744-.24-.32-.36-.728-.36-1.224 0-.384.128-.776.384-1.176.256-.4.6-.744 1.032-1.032v-.096c-.416-.304-.776-.712-1.08-1.224-.288-.512-.432-1.12-.432-1.824 0-.672.128-1.272.384-1.8a4.098 4.098 0 0 1 1.056-1.32c.448-.368.96-.648 1.536-.84a6.03 6.03 0 0 1 1.872-.288c.672 0 1.288.096 1.848.288h4.824v2.112h-2.712c.208.224.384.512.528.864.16.336.24.696.24 1.08 0 .656-.128 1.232-.384 1.728a3.48 3.48 0 0 1-1.008 1.248 4.372 4.372 0 0 1-1.488.768 6.292 6.292 0 0 1-1.848.264c-.56 0-1.16-.112-1.8-.336-.48.288-.72.656-.72 1.104 0 .736.744 1.104 2.232 1.104h2.4c1.536 0 2.688.224 3.456.672.784.432 1.176 1.168 1.176 2.208 0 .576-.16 1.12-.48 1.632-.32.512-.776.952-1.368 1.32-.576.384-1.288.68-2.136.888-.832.224-1.768.336-2.808.336Zm.048-10.68c.608 0 1.128-.2 1.56-.6.448-.416.672-1 .672-1.752 0-.72-.224-1.288-.672-1.704a2.168 2.168 0 0 0-1.56-.624c-.608 0-1.136.208-1.584.624-.432.416-.648.984-.648 1.704 0 .752.216 1.336.648 1.752.448.4.976.6 1.584.6Zm.288 8.856c.576 0 1.096-.056 1.56-.168a4.586 4.586 0 0 0 1.2-.408c.336-.176.592-.376.768-.6.176-.224.264-.464.264-.72 0-.464-.2-.776-.6-.936-.384-.144-.976-.216-1.776-.216h-1.872c-.752 0-1.352-.056-1.8-.168-.416.24-.712.488-.888.744-.176.256-.264.52-.264.792 0 .528.288.936.864 1.224.592.304 1.44.456 2.544.456ZM554.62 301v-11.784h2.136l.216 1.488h.072a3.93 3.93 0 0 1 .984-1.272c.4-.336.944-.504 1.632-.504 1.104 0 1.816.656 2.136 1.968.272-.576.616-1.048 1.032-1.416.416-.368.968-.552 1.656-.552.832 0 1.472.328 1.92.984.464.64.696 1.552.696 2.736V301h-2.664v-8.16c0-1.04-.312-1.56-.936-1.56-.32 0-.592.128-.816.384-.208.24-.432.608-.672 1.104V301h-2.304v-8.16c0-.512-.072-.896-.216-1.152-.144-.272-.384-.408-.72-.408-.32 0-.592.128-.816.384-.208.24-.424.608-.648 1.104V301h-2.688Zm18.926.288a4.57 4.57 0 0 1-1.584-.264 3.652 3.652 0 0 1-1.248-.696 3.166 3.166 0 0 1-.816-1.08 3.447 3.447 0 0 1-.288-1.416c0-.656.152-1.232.456-1.728.304-.512.784-.944 1.44-1.296.656-.352 1.496-.64 2.52-.864 1.024-.224 2.264-.384 3.72-.48-.048-.672-.288-1.224-.72-1.656-.432-.432-1.128-.648-2.088-.648a5.44 5.44 0 0 0-1.992.384c-.64.24-1.264.528-1.872.864l-1.008-1.848c.72-.416 1.544-.792 2.472-1.128a8.464 8.464 0 0 1 2.904-.504c1.648 0 2.904.44 3.768 1.32.864.864 1.296 2.12 1.296 3.768V301h-2.256l-.216-1.464h-.072c-.624.48-1.32.896-2.088 1.248a5.65 5.65 0 0 1-2.328.504Zm.84-2.16c.592 0 1.16-.128 1.704-.384a8.98 8.98 0 0 0 1.656-1.056v-2.496c-1.056.08-1.936.192-2.64.336-.704.128-1.264.296-1.68.504-.416.208-.712.448-.888.72a1.49 1.49 0 0 0-.264.864c0 .528.2.912.6 1.152.416.24.92.36 1.512.36ZM589.425 301v-9.6h-5.112v-2.184h7.872V301h-2.76Zm1.2-13.944c-.56 0-1.032-.168-1.416-.504-.368-.336-.552-.784-.552-1.344s.184-1.008.552-1.344c.384-.352.856-.528 1.416-.528.56 0 1.024.176 1.392.528.384.336.576.784.576 1.344s-.192 1.008-.576 1.344c-.368.336-.832.504-1.392.504Zm15.687 14.232c-1.376 0-2.424-.4-3.144-1.2-.704-.8-1.056-1.928-1.056-3.384V286.24h-3.936v-2.184h6.696v12.792c0 .8.2 1.368.6 1.704.416.32.92.48 1.512.48.624 0 1.296-.152 2.016-.456l.648 2.04c-.576.224-1.104.392-1.584.504-.48.112-1.064.168-1.752.168Zm11.966 0c-.688 0-1.256-.224-1.704-.672-.448-.464-.672-1.048-.672-1.752s.224-1.28.672-1.728c.448-.464 1.016-.696 1.704-.696s1.256.232 1.704.696c.448.448.672 1.024.672 1.728s-.224 1.288-.672 1.752c-.448.448-1.016.672-1.704.672Zm15.447 0a8.002 8.002 0 0 1-2.592-.408 6.037 6.037 0 0 1-2.064-1.2 5.694 5.694 0 0 1-1.368-1.944c-.32-.768-.48-1.64-.48-2.616 0-.976.176-1.848.528-2.616a5.936 5.936 0 0 1 1.464-1.944 6.214 6.214 0 0 1 2.136-1.2 7.659 7.659 0 0 1 2.568-.432c.96 0 1.8.16 2.52.48.736.32 1.352.712 1.848 1.176l-1.32 1.728a5.687 5.687 0 0 0-1.416-.84 3.853 3.853 0 0 0-1.488-.288c-1.184 0-2.144.36-2.88 1.08-.736.704-1.104 1.656-1.104 2.856 0 .592.096 1.128.288 1.608.192.48.456.896.792 1.248.352.336.768.6 1.248.792a4.57 4.57 0 0 0 1.584.264c.672 0 1.28-.128 1.824-.384a8.108 8.108 0 0 0 1.536-.912l1.152 1.776a7.329 7.329 0 0 1-2.28 1.344 7.449 7.449 0 0 1-2.496.432Zm13.334 0a6.265 6.265 0 0 1-2.232-.408 5.464 5.464 0 0 1-1.896-1.2 6.05 6.05 0 0 1-1.32-1.944c-.32-.768-.48-1.64-.48-2.616 0-.976.16-1.848.48-2.616a6.05 6.05 0 0 1 1.32-1.944 5.464 5.464 0 0 1 1.896-1.2 5.957 5.957 0 0 1 2.232-.432c.768 0 1.512.144 2.232.432.72.272 1.352.672 1.896 1.2a5.752 5.752 0 0 1 1.296 1.944c.336.768.504 1.64.504 2.616 0 .976-.168 1.848-.504 2.616a5.752 5.752 0 0 1-1.296 1.944 5.464 5.464 0 0 1-1.896 1.2 6.265 6.265 0 0 1-2.232.408Zm0-2.256c.96 0 1.712-.352 2.256-1.056.544-.72.816-1.672.816-2.856 0-1.2-.272-2.152-.816-2.856-.544-.72-1.296-1.08-2.256-1.08-.96 0-1.712.36-2.256 1.08-.544.704-.816 1.656-.816 2.856 0 1.184.272 2.136.816 2.856.544.704 1.296 1.056 2.256 1.056Zm8.295 1.968v-11.784h2.136l.216 1.488h.072a3.93 3.93 0 0 1 .984-1.272c.4-.336.944-.504 1.632-.504 1.104 0 1.816.656 2.136 1.968.272-.576.616-1.048 1.032-1.416.416-.368.968-.552 1.656-.552.832 0 1.472.328 1.92.984.464.64.696 1.552.696 2.736V301h-2.664v-8.16c0-1.04-.312-1.56-.936-1.56-.32 0-.592.128-.816.384-.208.24-.432.608-.672 1.104V301h-2.304v-8.16c0-.512-.072-.896-.216-1.152-.144-.272-.384-.408-.72-.408-.32 0-.592.128-.816.384-.208.24-.424.608-.648 1.104V301h-2.688Zm-110.642-43.352-.552 1.92h3.984l-.552-1.92a331.77 331.77 0 0 0-.696-2.544 160.6 160.6 0 0 1-.696-2.64h-.096a160.6 160.6 0 0 1-.696 2.64 97.112 97.112 0 0 1-.696 2.544ZM539.48 266l5.088-15.696h3.264L552.92 266h-2.952l-1.2-4.248h-5.232L542.312 266h-2.832Zm23.535.288c-1.376 0-2.424-.4-3.144-1.2-.704-.8-1.056-1.928-1.056-3.384V251.24h-3.936v-2.184h6.696v12.792c0 .8.2 1.368.6 1.704.416.32.92.48 1.512.48.624 0 1.296-.152 2.016-.456l.648 2.04c-.576.224-1.104.392-1.584.504-.48.112-1.064.168-1.752.168Zm12.686 0a7.635 7.635 0 0 1-2.52-.408 6.362 6.362 0 0 1-2.064-1.224 5.694 5.694 0 0 1-1.368-1.944c-.336-.768-.504-1.64-.504-2.616 0-.96.168-1.816.504-2.568a5.862 5.862 0 0 1 1.344-1.944 5.79 5.79 0 0 1 1.944-1.224 6.267 6.267 0 0 1 2.304-.432c.88 0 1.656.144 2.328.432.672.272 1.24.656 1.704 1.152.464.48.816 1.064 1.056 1.752.24.688.36 1.44.36 2.256 0 .272-.016.536-.048.792-.016.24-.04.44-.072.6h-8.664c.16 1.104.6 1.92 1.32 2.448.72.528 1.632.792 2.736.792.624 0 1.2-.088 1.728-.264a8.678 8.678 0 0 0 1.584-.72l.936 1.728a8.494 8.494 0 0 1-2.136 1.008 7.913 7.913 0 0 1-2.472.384Zm-.288-10.224c-.816 0-1.536.24-2.16.72-.608.48-1 1.2-1.176 2.16h6.264c-.096-.96-.4-1.68-.912-2.16-.496-.48-1.168-.72-2.016-.72Zm7.983 9.936 4.272-6.12-3.984-5.664h3l1.536 2.232c.192.32.4.656.624 1.008l.672 1.008h.096c.176-.336.368-.68.576-1.032.208-.352.4-.688.576-1.008l1.392-2.208h2.904l-4.008 5.952 4.296 5.832h-3l-1.704-2.328-.72-1.032c-.24-.368-.48-.72-.72-1.056h-.096c-.224.352-.44.704-.648 1.056-.192.336-.4.688-.624 1.056L586.3 266h-2.904Zm18.807.288a4.57 4.57 0 0 1-1.584-.264 3.652 3.652 0 0 1-1.248-.696 3.166 3.166 0 0 1-.816-1.08 3.447 3.447 0 0 1-.288-1.416c0-.656.152-1.232.456-1.728.304-.512.784-.944 1.44-1.296.656-.352 1.496-.64 2.52-.864 1.024-.224 2.264-.384 3.72-.48-.048-.672-.288-1.224-.72-1.656-.432-.432-1.128-.648-2.088-.648a5.44 5.44 0 0 0-1.992.384c-.64.24-1.264.528-1.873.864l-1.007-1.848c.72-.416 1.544-.792 2.472-1.128a8.464 8.464 0 0 1 2.904-.504c1.648 0 2.904.44 3.768 1.32.864.864 1.296 2.12 1.296 3.768V266h-2.256l-.216-1.464h-.072c-.624.48-1.32.896-2.088 1.248a5.65 5.65 0 0 1-2.328.504Zm.84-2.16c.592 0 1.16-.128 1.704-.384a8.98 8.98 0 0 0 1.656-1.056v-2.496c-1.056.08-1.936.192-2.64.336-.704.128-1.264.296-1.68.504-.416.208-.712.448-.888.72a1.49 1.49 0 0 0-.264.864c0 .528.2.912.6 1.152.416.24.92.36 1.512.36Zm9.878 1.872v-11.784h2.28l.216 1.776h.096a9.417 9.417 0 0 1 1.848-1.44c.688-.416 1.488-.624 2.4-.624 1.36 0 2.36.416 3 1.248.64.816.96 1.992.96 3.528V266h-2.784v-6.936c0-.96-.168-1.656-.504-2.088-.32-.448-.888-.672-1.704-.672a2.9 2.9 0 0 0-1.536.408c-.448.272-.944.688-1.488 1.248V266h-2.784Zm18.735.288a5.11 5.11 0 0 1-2.064-.408 4.63 4.63 0 0 1-1.608-1.224c-.432-.528-.768-1.168-1.008-1.92-.24-.768-.36-1.64-.36-2.616 0-.96.144-1.824.432-2.592.288-.768.672-1.416 1.152-1.944a5.396 5.396 0 0 1 1.68-1.224 4.589 4.589 0 0 1 1.944-.432c.672 0 1.264.12 1.776.36s1 .584 1.464 1.032h.072l-.144-1.992v-4.272h2.784V266h-2.28l-.216-1.368h-.072a6.45 6.45 0 0 1-1.632 1.176c-.608.32-1.248.48-1.92.48Zm.672-2.28c.976 0 1.864-.472 2.664-1.416v-5.304c-.416-.4-.832-.68-1.248-.84-.416-.16-.84-.24-1.272-.24-.416 0-.808.088-1.176.264a2.832 2.832 0 0 0-.936.768c-.272.32-.488.72-.648 1.2-.16.48-.24 1.032-.24 1.656 0 1.28.248 2.256.744 2.928.496.656 1.2.984 2.112.984Zm15.326 2.28a7.635 7.635 0 0 1-2.52-.408 6.362 6.362 0 0 1-2.064-1.224 5.694 5.694 0 0 1-1.368-1.944c-.336-.768-.504-1.64-.504-2.616 0-.96.168-1.816.504-2.568a5.862 5.862 0 0 1 1.344-1.944 5.79 5.79 0 0 1 1.944-1.224 6.267 6.267 0 0 1 2.304-.432c.88 0 1.656.144 2.328.432.672.272 1.24.656 1.704 1.152.464.48.816 1.064 1.056 1.752.24.688.36 1.44.36 2.256 0 .272-.016.536-.048.792-.016.24-.04.44-.072.6h-8.664c.16 1.104.6 1.92 1.32 2.448.72.528 1.632.792 2.736.792.624 0 1.2-.088 1.728-.264a8.678 8.678 0 0 0 1.584-.72l.936 1.728a8.494 8.494 0 0 1-2.136 1.008 7.913 7.913 0 0 1-2.472.384Zm-.288-10.224c-.816 0-1.536.24-2.16.72-.608.48-1 1.2-1.176 2.16h6.264c-.096-.96-.4-1.68-.912-2.16-.496-.48-1.168-.72-2.016-.72Zm9.879 9.936v-11.784h2.28l.24 2.664h.072c.608-.96 1.336-1.688 2.184-2.184a5.455 5.455 0 0 1 2.832-.768c.48 0 .888.04 1.224.12.352.064.704.184 1.056.36l-.576 2.328a6.538 6.538 0 0 0-1.032-.264 5.231 5.231 0 0 0-1.104-.096c-.816 0-1.6.232-2.352.696-.752.464-1.432 1.272-2.04 2.424V266h-2.784ZM606.448 74.022s1.921-.874 3.143.523c1.223 1.397 4.366 6.811 4.366 12.224 0 5.414-1.397 11.177-2.794 13.097-1.397 1.922-2.794 1.922-3.842 1.223-1.048-.698-17.288-13.097-18.161-13.446-.873-.35-1.223.523-.35 5.239.874 4.714-.523 6.111-1.746 6.286-1.222.175-4.889-.873-5.064-10.652-.175-9.78 2.445-11.351 3.667-11.351 2.297 0 19.738 15.745 20.956 15.542 1.047-.175 1.571-6.81-.524-12.05-2.269-5.672.349-6.635.349-6.635Zm28.071-9.78c5.866 11.649 5.508 22.663 5.462 23.825.046 1.013.404 12.042-5.462 23.691 0 0-1.527 1.746-3.798.698-2.27-1.047-1.484-3.842-1.484-3.842s4.753-9.176 4.628-20.448l.002-.174c.123-11.273-4.63-20.606-4.63-20.606s-.786-2.794 1.484-3.842c2.271-1.048 3.798.698 3.798.698Zm-11.376 5.24c4.784 8.73 4.46 17.423 4.413 18.585.047 1.013.371 9.355-4.407 18.793 0 0-1.528 1.746-3.798.698-2.27-1.047-1.484-3.841-1.484-3.841s3.075-4.374 3.573-15.55l.003-.175c-.326-11.177-3.583-15.368-3.583-15.368s-.785-2.793 1.485-3.841 3.798.698 3.798.698Z" fill="#fff"/></g><defs><linearGradient id="c" x1="-103" y1="-67.5" x2="627.5" y2="307.5" gradientUnits="userSpaceOnUse"><stop stop-color="#007CFF"/><stop offset="1" stop-color="#90F"/></linearGradient><clipPath id="b"><rect x="59" width="640" height="372" rx="15" fill="#fff"/></clipPath><filter id="a" x="0" y="128" width="759" height="379" filterUnits="userSpaceOnUse" color-interpolation-filters="sRGB"><feFlood flood-opacity="0" result="BackgroundImageFix"/><feBlend in="SourceGraphic" in2="BackgroundImageFix" result="shape"/><feGaussianBlur stdDeviation="50" result="effect1_foregroundBlur_8_5"/></filter></defs></svg>