<svg width="44" height="44" fill="none" xmlns="http://www.w3.org/2000/svg"><circle cx="22" cy="22" r="22" fill="#000"/><path d="m29.17 14.256-.317 2.456c-.774-.053-1.373.088-1.796.422-.422.335-.704.802-.845 1.4-.14.599-.167 1.276-.079 2.034h3.037v6.364h-5.836v-6.893c0-2.077.493-3.644 1.479-4.7 1.003-1.074 2.456-1.435 4.357-1.083Zm-8.134 0-.317 2.456c-.774-.053-1.373.088-1.795.422-.423.335-.704.802-.845 1.4-.141.599-.168 1.276-.08 2.034h3.037v6.364H15.2v-6.893c0-2.077.493-3.644 1.48-4.7 1.003-1.074 2.455-1.435 4.356-1.083Z" fill="#fff"/></svg>